<svg xmlns="http://www.w3.org/2000/svg" width="63.447" height="50.758" viewBox="0 0 63.447 50.758">
  <path id="home" d="M157.684,100.8a1.7,1.7,0,0,0-.942.322l-30.137,23.793a1.642,1.642,0,0,0-.273,2.255,1.666,1.666,0,0,0,2.255.248l29.146-23,29.146,23a1.6,1.6,0,0,0,1.983-2.5L158.726,101.12a1.811,1.811,0,0,0-1.041-.322Zm-19.778,21.34-3.172,2.5V149.97h0a1.586,1.586,0,0,0,1.586,1.586h15.069a1.586,1.586,0,0,0,1.586-1.586v-9.517a4.759,4.759,0,1,1,9.518,0v9.517h0a1.586,1.586,0,0,0,1.586,1.586h15.069a1.586,1.586,0,0,0,1.586-1.586V124.64l-3.172-2.5v26.245h-11.9v-7.931a7.931,7.931,0,0,0-15.862,0v7.931h-11.9V122.137Z" transform="translate(-126.004 -100.797)" fill="#f07809"/>
</svg>