<svg xmlns="http://www.w3.org/2000/svg" width="38.469" height="50.531" viewBox="0 0 38.469 50.531">
  <g id="water" transform="translate(-811.489 -3271)">
    <path id="Path_4331" data-name="Path 4331" d="M324.852,450.211c.033.032.065.062.1.091a1.383,1.383,0,0,0,.386.226,2.1,2.1,0,0,0,.768.144,1.443,1.443,0,0,0-.244-2.864,1.423,1.423,0,0,0-1.421,1.4v0a1.4,1.4,0,0,0,.411.993Z" transform="translate(504.002 2863.605)" fill="#f07809"/>
    <path id="Path_4332" data-name="Path 4332" d="M230.325,323.686a1.406,1.406,0,0,0,1.552-2.346,8.869,8.869,0,0,1-3.732-9.384,1.406,1.406,0,0,0-2.742-.626,11.678,11.678,0,0,0,4.922,12.356Z" transform="translate(594.299 2988.662)" fill="#f07809"/>
    <path id="Path_4333" data-name="Path 4333" d="M157.305,54.056a19.253,19.253,0,0,0,19.231-19.231C176.536,24.558,159.1,4.831,158.357,4a1.405,1.405,0,0,0-2.1,0c-.742.834-18.187,20.56-18.187,30.828A19.256,19.256,0,0,0,157.3,54.056Zm0-46.987c5.408,6.306,16.417,20.614,16.417,27.756a16.421,16.421,0,0,1-32.842,0C140.88,27.688,151.895,13.376,157.305,7.069Z" transform="translate(673.422 3267.475)" fill="#f07809"/>
  </g>
</svg>